<?xml version="1.0" encoding="UTF-8" standalone="no"?>
<!DOCTYPE svg PUBLIC "-//W3C//DTD SVG 1.1//EN" "http://www.w3.org/Graphics/SVG/1.1/DTD/svg11.dtd">
<svg width="100%" height="100%" viewBox="0 0 2111 2111" version="1.1" xmlns="http://www.w3.org/2000/svg" xmlns:xlink="http://www.w3.org/1999/xlink" xml:space="preserve" xmlns:serif="http://www.serif.com/" style="fill-rule:evenodd;clip-rule:evenodd;stroke-linejoin:round;stroke-miterlimit:1.41421;">
    <g transform="matrix(0.961852,0,0,0.961852,290.234,963.836)">
        <circle cx="466.6" cy="466.6" r="466.6" style="fill:rgb(126,87,194);"/>
        <g transform="matrix(8.37644,0,0,8.37644,-2157.62,-2216.04)">
            <path d="M278.561,308.742L281.53,318.023L284.499,308.742L286.342,308.742L286.342,320.117L284.913,320.117L284.913,315.687L285.046,311.25L282.069,320.117L280.975,320.117L278.014,311.281L278.147,315.687L278.147,320.117L276.717,320.117L276.717,308.742L278.561,308.742Z" style="fill:white;fill-rule:nonzero;"/>
            <path d="M288.319,315.5C288.319,314.271 288.617,313.298 289.214,312.582C289.81,311.866 290.598,311.508 291.577,311.508C292.556,311.508 293.344,311.857 293.94,312.555C294.536,313.253 294.842,314.203 294.858,315.406L294.858,316.297C294.858,317.521 294.561,318.49 293.967,319.203C293.374,319.917 292.582,320.273 291.592,320.273C290.613,320.273 289.828,319.927 289.237,319.234C288.646,318.542 288.34,317.604 288.319,316.422L288.319,315.5ZM289.702,316.297C289.702,317.167 289.872,317.85 290.214,318.348C290.555,318.845 291.014,319.094 291.592,319.094C292.811,319.094 293.439,318.214 293.475,316.453L293.475,315.5C293.475,314.635 293.303,313.952 292.96,313.449C292.616,312.947 292.155,312.695 291.577,312.695C291.009,312.695 290.555,312.947 290.214,313.449C289.872,313.952 289.702,314.633 289.702,315.492L289.702,316.297Z" style="fill:white;fill-rule:nonzero;"/>
            <path d="M302.764,316.297C302.764,317.615 302.527,318.607 302.053,319.273C301.579,319.94 300.892,320.273 299.991,320.273C299.095,320.273 298.423,319.888 297.975,319.117L297.905,320.117L296.647,320.117L296.647,308.117L298.022,308.117L298.022,312.594C298.475,311.87 299.126,311.508 299.975,311.508C300.902,311.508 301.598,311.836 302.061,312.492C302.525,313.148 302.759,314.138 302.764,315.461L302.764,316.297ZM301.389,315.508C301.389,314.508 301.25,313.796 300.971,313.371C300.693,312.947 300.241,312.734 299.616,312.734C298.902,312.734 298.371,313.12 298.022,313.891L298.022,317.914C298.366,318.674 298.902,319.055 299.632,319.055C300.257,319.055 300.704,318.836 300.975,318.398C301.246,317.961 301.384,317.281 301.389,316.359L301.389,315.508Z" style="fill:white;fill-rule:nonzero;"/>
            <path d="M306.022,320.117L304.639,320.117L304.639,311.664L306.022,311.664L306.022,320.117ZM306.132,309.422C306.132,309.656 306.066,309.852 305.936,310.008C305.806,310.164 305.608,310.242 305.342,310.242C305.082,310.242 304.887,310.164 304.757,310.008C304.626,309.852 304.561,309.656 304.561,309.422C304.561,309.187 304.626,308.99 304.757,308.828C304.887,308.667 305.082,308.586 305.342,308.586C305.603,308.586 305.8,308.668 305.932,308.832C306.065,308.996 306.132,309.193 306.132,309.422Z" style="fill:white;fill-rule:nonzero;"/>
            <rect x="308.303" y="308.117" width="1.383" height="12" style="fill:white;fill-rule:nonzero;"/>
            <path d="M314.882,320.273C313.829,320.273 313.022,319.96 312.46,319.332C311.897,318.704 311.611,317.784 311.6,316.57L311.6,315.547C311.6,314.286 311.875,313.298 312.425,312.582C312.974,311.866 313.741,311.508 314.725,311.508C315.715,311.508 316.454,311.823 316.944,312.453C317.434,313.083 317.684,314.065 317.694,315.398L317.694,316.305L312.975,316.305L312.975,316.5C312.975,317.406 313.146,318.065 313.487,318.477C313.828,318.888 314.319,319.094 314.96,319.094C315.366,319.094 315.724,319.017 316.034,318.863C316.344,318.71 316.634,318.466 316.905,318.133L317.624,319.008C317.025,319.852 316.111,320.273 314.882,320.273ZM314.725,312.695C314.152,312.695 313.728,312.892 313.452,313.285C313.176,313.678 313.02,314.289 312.983,315.117L316.311,315.117L316.311,314.93C316.275,314.128 316.13,313.555 315.878,313.211C315.625,312.867 315.241,312.695 314.725,312.695Z" style="fill:white;fill-rule:nonzero;"/>
            <path d="M281.991,331.094L278.147,331.094L278.147,336.117L276.717,336.117L276.717,324.742L282.639,324.742L282.639,325.977L278.147,325.977L278.147,329.867L281.991,329.867L281.991,331.094Z" style="fill:white;fill-rule:nonzero;"/>
            <path d="M285.702,336.117L284.319,336.117L284.319,327.664L285.702,327.664L285.702,336.117ZM285.811,325.422C285.811,325.656 285.746,325.852 285.616,326.008C285.486,326.164 285.288,326.242 285.022,326.242C284.762,326.242 284.566,326.164 284.436,326.008C284.306,325.852 284.241,325.656 284.241,325.422C284.241,325.187 284.306,324.99 284.436,324.828C284.566,324.667 284.762,324.586 285.022,324.586C285.283,324.586 285.479,324.668 285.612,324.832C285.745,324.996 285.811,325.193 285.811,325.422Z" style="fill:white;fill-rule:nonzero;"/>
            <path d="M291.366,328.961C291.173,328.924 290.965,328.906 290.741,328.906C290.033,328.906 289.538,329.294 289.257,330.07L289.257,336.117L287.874,336.117L287.874,327.664L289.217,327.664L289.241,328.523C289.611,327.846 290.134,327.508 290.811,327.508C291.03,327.508 291.212,327.544 291.358,327.617L291.366,328.961Z" style="fill:white;fill-rule:nonzero;"/>
            <path d="M296.85,333.953C296.85,333.656 296.738,333.401 296.514,333.187C296.29,332.974 295.858,332.724 295.217,332.437C294.473,332.13 293.948,331.867 293.643,331.648C293.339,331.43 293.111,331.181 292.96,330.902C292.809,330.624 292.733,330.292 292.733,329.906C292.733,329.219 292.984,328.647 293.487,328.191C293.99,327.736 294.632,327.508 295.413,327.508C296.236,327.508 296.897,327.747 297.397,328.227C297.897,328.706 298.147,329.32 298.147,330.07L296.772,330.07C296.772,329.69 296.645,329.366 296.389,329.098C296.134,328.829 295.809,328.695 295.413,328.695C295.007,328.695 294.688,328.801 294.456,329.012C294.224,329.223 294.108,329.505 294.108,329.859C294.108,330.141 294.193,330.367 294.362,330.539C294.531,330.711 294.939,330.937 295.585,331.219C296.611,331.62 297.309,332.012 297.678,332.395C298.048,332.777 298.233,333.263 298.233,333.852C298.233,334.586 297.98,335.173 297.475,335.613C296.97,336.053 296.293,336.273 295.444,336.273C294.564,336.273 293.85,336.021 293.303,335.516C292.757,335.01 292.483,334.37 292.483,333.594L293.874,333.594C293.889,334.062 294.033,334.43 294.303,334.695C294.574,334.961 294.954,335.094 295.444,335.094C295.902,335.094 296.251,334.991 296.491,334.785C296.73,334.579 296.85,334.302 296.85,333.953Z" style="fill:white;fill-rule:nonzero;"/>
            <path d="M301.842,325.617L301.842,327.664L303.116,327.664L303.116,328.781L301.842,328.781L301.842,334.023C301.842,334.357 301.897,334.609 302.007,334.781C302.116,334.953 302.303,335.039 302.569,335.039C302.751,335.039 302.936,335.008 303.124,334.945L303.108,336.117C302.796,336.221 302.475,336.273 302.147,336.273C301.6,336.273 301.184,336.078 300.897,335.687C300.611,335.297 300.467,334.745 300.467,334.031L300.467,328.781L299.178,328.781L299.178,327.664L300.467,327.664L300.467,325.617L301.842,325.617Z" style="fill:white;fill-rule:nonzero;"/>
            <path d="M276.717,352.117L276.717,340.742L279.428,340.742C280.757,340.742 281.788,341.158 282.522,341.988C283.257,342.819 283.624,343.987 283.624,345.492L283.624,347.398C283.624,348.904 283.251,350.066 282.507,350.887C281.762,351.707 280.681,352.117 279.264,352.117L276.717,352.117ZM278.147,341.977L278.147,350.891L279.296,350.891C280.301,350.891 281.035,350.603 281.499,350.027C281.962,349.452 282.199,348.599 282.21,347.469L282.21,345.453C282.21,344.255 281.979,343.376 281.518,342.816C281.057,342.256 280.361,341.977 279.428,341.977L278.147,341.977Z" style="fill:white;fill-rule:nonzero;"/>
            <path d="M288.678,352.273C287.626,352.273 286.819,351.96 286.257,351.332C285.694,350.704 285.408,349.784 285.397,348.57L285.397,347.547C285.397,346.286 285.672,345.298 286.221,344.582C286.771,343.866 287.538,343.508 288.522,343.508C289.512,343.508 290.251,343.823 290.741,344.453C291.23,345.083 291.48,346.065 291.491,347.398L291.491,348.305L286.772,348.305L286.772,348.5C286.772,349.406 286.943,350.065 287.284,350.477C287.625,350.888 288.116,351.094 288.757,351.094C289.163,351.094 289.521,351.017 289.831,350.863C290.141,350.71 290.431,350.466 290.702,350.133L291.421,351.008C290.822,351.852 289.908,352.273 288.678,352.273ZM288.522,344.695C287.949,344.695 287.525,344.892 287.249,345.285C286.973,345.678 286.816,346.289 286.78,347.117L290.108,347.117L290.108,346.93C290.072,346.128 289.927,345.555 289.675,345.211C289.422,344.867 289.038,344.695 288.522,344.695Z" style="fill:white;fill-rule:nonzero;"/>
            <path d="M297.257,349.953C297.257,349.656 297.145,349.401 296.921,349.187C296.697,348.974 296.264,348.724 295.624,348.437C294.879,348.13 294.354,347.867 294.05,347.648C293.745,347.43 293.517,347.181 293.366,346.902C293.215,346.624 293.139,346.292 293.139,345.906C293.139,345.219 293.391,344.647 293.893,344.191C294.396,343.736 295.038,343.508 295.819,343.508C296.642,343.508 297.303,343.747 297.803,344.227C298.303,344.706 298.553,345.32 298.553,346.07L297.178,346.07C297.178,345.69 297.051,345.366 296.796,345.098C296.54,344.829 296.215,344.695 295.819,344.695C295.413,344.695 295.094,344.801 294.862,345.012C294.63,345.223 294.514,345.505 294.514,345.859C294.514,346.141 294.599,346.367 294.768,346.539C294.938,346.711 295.345,346.937 295.991,347.219C297.017,347.62 297.715,348.012 298.085,348.395C298.454,348.777 298.639,349.263 298.639,349.852C298.639,350.586 298.387,351.173 297.882,351.613C297.376,352.053 296.699,352.273 295.85,352.273C294.97,352.273 294.257,352.021 293.71,351.516C293.163,351.01 292.889,350.37 292.889,349.594L294.28,349.594C294.296,350.062 294.439,350.43 294.71,350.695C294.98,350.961 295.361,351.094 295.85,351.094C296.309,351.094 296.658,350.991 296.897,350.785C297.137,350.579 297.257,350.302 297.257,349.953Z" style="fill:white;fill-rule:nonzero;"/>
            <path d="M301.928,352.117L300.546,352.117L300.546,343.664L301.928,343.664L301.928,352.117ZM302.038,341.422C302.038,341.656 301.973,341.852 301.842,342.008C301.712,342.164 301.514,342.242 301.249,342.242C300.988,342.242 300.793,342.164 300.663,342.008C300.533,341.852 300.467,341.656 300.467,341.422C300.467,341.187 300.533,340.99 300.663,340.828C300.793,340.667 300.988,340.586 301.249,340.586C301.509,340.586 301.706,340.668 301.839,340.832C301.971,340.996 302.038,341.193 302.038,341.422Z" style="fill:white;fill-rule:nonzero;"/>
            <path d="M303.827,347.508C303.827,346.19 304.066,345.194 304.546,344.52C305.025,343.845 305.725,343.508 306.647,343.508C307.507,343.508 308.16,343.875 308.608,344.609L308.678,343.664L309.928,343.664L309.928,352.195C309.928,353.242 309.66,354.046 309.124,354.605C308.587,355.165 307.84,355.445 306.882,355.445C306.465,355.445 305.997,355.342 305.479,355.137C304.961,354.931 304.572,354.677 304.311,354.375L304.874,353.422C305.447,353.984 306.079,354.266 306.772,354.266C307.923,354.266 308.514,353.638 308.546,352.383L308.546,351.281C308.098,351.943 307.462,352.273 306.639,352.273C305.764,352.273 305.082,351.944 304.592,351.285C304.103,350.626 303.848,349.68 303.827,348.445L303.827,347.508ZM305.21,348.297C305.21,349.245 305.349,349.941 305.628,350.387C305.906,350.832 306.363,351.055 306.999,351.055C307.686,351.055 308.202,350.703 308.546,350L308.546,345.773C308.186,345.081 307.676,344.734 307.014,344.734C306.379,344.734 305.921,344.957 305.639,345.402C305.358,345.848 305.215,346.531 305.21,347.453L305.21,348.297Z" style="fill:white;fill-rule:nonzero;"/>
            <path d="M313.288,343.664L313.327,344.578C313.863,343.865 314.548,343.508 315.382,343.508C316.876,343.508 317.634,344.505 317.655,346.5L317.655,352.117L316.28,352.117L316.28,346.562C316.28,345.901 316.169,345.431 315.948,345.152C315.727,344.874 315.395,344.734 314.952,344.734C314.608,344.734 314.3,344.849 314.026,345.078C313.753,345.307 313.533,345.607 313.366,345.977L313.366,352.117L311.983,352.117L311.983,343.664L313.288,343.664Z" style="fill:white;fill-rule:nonzero;"/>
        </g>
    </g>
    <g>
        <path d="M1055.32,0C1637.77,0 2110.64,472.873 2110.64,1055.32C2110.64,1637.77 1637.77,2110.64 1055.32,2110.64C472.873,2110.64 0,1637.77 0,1055.32C0,472.873 472.873,0 1055.32,0ZM1079.47,1102.8C1053.87,1074.53 1024.83,1049.41 993.046,1028.34C918.331,978.822 828.647,952.122 739.683,951.911C738.69,951.91 737.697,951.912 736.704,951.916C647.334,952.412 558.225,979.374 483.674,1029.11C399.941,1084.97 335.078,1168.88 302.593,1264.32C264.13,1377.3 271.83,1505.03 323.607,1612.42C372.28,1713.37 459.144,1795.66 562.879,1838.63C659.742,1878.76 770.658,1884.33 871.158,1854.23C994.651,1817.25 1099.57,1726.76 1154.87,1611.16C1197.13,1522.83 1209.96,1421 1191.35,1324.83C1184.44,1289.09 1173.12,1254.4 1157.96,1221.51C1137.99,1177.86 1111.4,1137.86 1079.47,1102.8Z" style="fill:rgb(147,115,204);"/>
        <g transform="matrix(13.8334,0,0,13.8334,-11324.6,-3269)">
            <path d="M877.052,272.669L873.208,272.669L872.325,275.638L870.856,275.638L874.52,264.263L875.747,264.263L879.419,275.638L877.95,275.638L877.052,272.669ZM873.583,271.435L876.684,271.435L875.13,266.263L873.583,271.435Z" style="fill:white;fill-rule:nonzero;"/>
            <path d="M883.708,274.615C884.166,274.615 884.533,274.473 884.809,274.189C885.085,273.905 885.236,273.5 885.263,272.974L886.567,272.974C886.536,273.786 886.248,274.46 885.704,274.993C885.16,275.527 884.494,275.794 883.708,275.794C882.661,275.794 881.863,275.465 881.313,274.806C880.764,274.147 880.489,273.167 880.489,271.865L880.489,270.935C880.489,269.659 880.763,268.689 881.309,268.025C881.856,267.361 882.653,267.029 883.7,267.029C884.565,267.029 885.251,267.302 885.759,267.849C886.266,268.396 886.536,269.143 886.567,270.091L885.263,270.091C885.231,269.466 885.082,268.997 884.813,268.685C884.545,268.372 884.174,268.216 883.7,268.216C883.085,268.216 882.63,268.418 882.333,268.822C882.036,269.225 881.882,269.888 881.872,270.81L881.872,271.888C881.872,272.883 882.019,273.586 882.313,273.997C882.608,274.409 883.072,274.615 883.708,274.615Z" style="fill:white;fill-rule:nonzero;"/>
            <path d="M891.098,274.615C891.557,274.615 891.924,274.473 892.2,274.189C892.476,273.905 892.627,273.5 892.653,272.974L893.958,272.974C893.927,273.786 893.639,274.46 893.095,274.993C892.55,275.527 891.885,275.794 891.098,275.794C890.052,275.794 889.253,275.465 888.704,274.806C888.154,274.147 887.88,273.167 887.88,271.865L887.88,270.935C887.88,269.659 888.153,268.689 888.7,268.025C889.247,267.361 890.044,267.029 891.091,267.029C891.955,267.029 892.641,267.302 893.149,267.849C893.657,268.396 893.927,269.143 893.958,270.091L892.653,270.091C892.622,269.466 892.472,268.997 892.204,268.685C891.936,268.372 891.565,268.216 891.091,268.216C890.476,268.216 890.02,268.418 889.723,268.822C889.427,269.225 889.273,269.888 889.263,270.81L889.263,271.888C889.263,272.883 889.41,273.586 889.704,273.997C889.998,274.409 890.463,274.615 891.098,274.615Z" style="fill:white;fill-rule:nonzero;"/>
            <path d="M898.575,275.794C897.523,275.794 896.716,275.48 896.153,274.853C895.591,274.225 895.304,273.305 895.294,272.091L895.294,271.068C895.294,269.807 895.569,268.819 896.118,268.103C896.667,267.387 897.434,267.029 898.419,267.029C899.408,267.029 900.148,267.344 900.638,267.974C901.127,268.604 901.377,269.586 901.388,270.919L901.388,271.825L896.669,271.825L896.669,272.021C896.669,272.927 896.839,273.586 897.18,273.997C897.522,274.409 898.013,274.615 898.653,274.615C899.059,274.615 899.417,274.538 899.727,274.384C900.037,274.23 900.328,273.987 900.598,273.654L901.317,274.529C900.718,275.372 899.804,275.794 898.575,275.794ZM898.419,268.216C897.846,268.216 897.421,268.413 897.145,268.806C896.869,269.199 896.713,269.81 896.677,270.638L900.005,270.638L900.005,270.45C899.968,269.648 899.824,269.075 899.571,268.732C899.319,268.388 898.934,268.216 898.419,268.216Z" style="fill:white;fill-rule:nonzero;"/>
            <path d="M907.153,273.474C907.153,273.177 907.041,272.922 906.817,272.708C906.593,272.495 906.161,272.245 905.52,271.958C904.776,271.651 904.251,271.388 903.946,271.169C903.641,270.95 903.414,270.702 903.263,270.423C903.111,270.145 903.036,269.812 903.036,269.427C903.036,268.74 903.287,268.168 903.79,267.712C904.292,267.256 904.934,267.029 905.716,267.029C906.539,267.029 907.2,267.268 907.7,267.747C908.2,268.227 908.45,268.841 908.45,269.591L907.075,269.591C907.075,269.211 906.947,268.887 906.692,268.618C906.437,268.35 906.111,268.216 905.716,268.216C905.309,268.216 904.99,268.322 904.759,268.533C904.527,268.743 904.411,269.026 904.411,269.38C904.411,269.661 904.496,269.888 904.665,270.06C904.834,270.232 905.242,270.458 905.888,270.74C906.914,271.141 907.611,271.533 907.981,271.915C908.351,272.298 908.536,272.784 908.536,273.372C908.536,274.107 908.283,274.694 907.778,275.134C907.273,275.574 906.596,275.794 905.747,275.794C904.867,275.794 904.153,275.542 903.606,275.036C903.059,274.531 902.786,273.891 902.786,273.115L904.177,273.115C904.192,273.583 904.335,273.95 904.606,274.216C904.877,274.482 905.257,274.615 905.747,274.615C906.205,274.615 906.554,274.512 906.794,274.306C907.033,274.1 907.153,273.823 907.153,273.474Z" style="fill:white;fill-rule:nonzero;"/>
            <path d="M914.442,273.474C914.442,273.177 914.33,272.922 914.106,272.708C913.882,272.495 913.45,272.245 912.809,271.958C912.065,271.651 911.54,271.388 911.235,271.169C910.93,270.95 910.703,270.702 910.552,270.423C910.401,270.145 910.325,269.812 910.325,269.427C910.325,268.74 910.576,268.168 911.079,267.712C911.582,267.256 912.223,267.029 913.005,267.029C913.828,267.029 914.489,267.268 914.989,267.747C915.489,268.227 915.739,268.841 915.739,269.591L914.364,269.591C914.364,269.211 914.236,268.887 913.981,268.618C913.726,268.35 913.401,268.216 913.005,268.216C912.598,268.216 912.279,268.322 912.048,268.533C911.816,268.743 911.7,269.026 911.7,269.38C911.7,269.661 911.785,269.888 911.954,270.06C912.123,270.232 912.531,270.458 913.177,270.74C914.203,271.141 914.901,271.533 915.27,271.915C915.64,272.298 915.825,272.784 915.825,273.372C915.825,274.107 915.572,274.694 915.067,275.134C914.562,275.574 913.885,275.794 913.036,275.794C912.156,275.794 911.442,275.542 910.895,275.036C910.348,274.531 910.075,273.891 910.075,273.115L911.466,273.115C911.481,273.583 911.624,273.95 911.895,274.216C912.166,274.482 912.546,274.615 913.036,274.615C913.494,274.615 913.843,274.512 914.083,274.306C914.322,274.1 914.442,273.823 914.442,273.474Z" style="fill:white;fill-rule:nonzero;"/>
            <path d="M919.114,275.638L917.731,275.638L917.731,267.185L919.114,267.185L919.114,275.638ZM919.223,264.943C919.223,265.177 919.158,265.372 919.028,265.529C918.898,265.685 918.7,265.763 918.434,265.763C918.174,265.763 917.979,265.685 917.848,265.529C917.718,265.372 917.653,265.177 917.653,264.943C917.653,264.708 917.718,264.51 917.848,264.349C917.979,264.187 918.174,264.107 918.434,264.107C918.695,264.107 918.891,264.189 919.024,264.353C919.157,264.517 919.223,264.714 919.223,264.943Z" style="fill:white;fill-rule:nonzero;"/>
            <path d="M927.411,271.818C927.411,273.135 927.174,274.128 926.7,274.794C926.226,275.461 925.539,275.794 924.638,275.794C923.742,275.794 923.07,275.409 922.622,274.638L922.552,275.638L921.294,275.638L921.294,263.638L922.669,263.638L922.669,268.115C923.122,267.391 923.773,267.029 924.622,267.029C925.549,267.029 926.244,267.357 926.708,268.013C927.171,268.669 927.406,269.659 927.411,270.982L927.411,271.818ZM926.036,271.029C926.036,270.029 925.897,269.316 925.618,268.892C925.339,268.467 924.888,268.255 924.263,268.255C923.549,268.255 923.018,268.641 922.669,269.411L922.669,273.435C923.013,274.195 923.549,274.575 924.278,274.575C924.903,274.575 925.351,274.357 925.622,273.919C925.893,273.482 926.031,272.802 926.036,271.88L926.036,271.029Z" style="fill:white;fill-rule:nonzero;"/>
            <path d="M930.669,275.638L929.286,275.638L929.286,267.185L930.669,267.185L930.669,275.638ZM930.778,264.943C930.778,265.177 930.713,265.372 930.583,265.529C930.453,265.685 930.255,265.763 929.989,265.763C929.729,265.763 929.533,265.685 929.403,265.529C929.273,265.372 929.208,265.177 929.208,264.943C929.208,264.708 929.273,264.51 929.403,264.349C929.533,264.187 929.729,264.107 929.989,264.107C930.249,264.107 930.446,264.189 930.579,264.353C930.712,264.517 930.778,264.714 930.778,264.943Z" style="fill:white;fill-rule:nonzero;"/>
            <rect x="932.95" y="263.638" width="1.383" height="12" style="fill:white;fill-rule:nonzero;"/>
            <path d="M937.997,275.638L936.614,275.638L936.614,267.185L937.997,267.185L937.997,275.638ZM938.106,264.943C938.106,265.177 938.041,265.372 937.911,265.529C937.781,265.685 937.583,265.763 937.317,265.763C937.057,265.763 936.861,265.685 936.731,265.529C936.601,265.372 936.536,265.177 936.536,264.943C936.536,264.708 936.601,264.51 936.731,264.349C936.861,264.187 937.057,264.107 937.317,264.107C937.578,264.107 937.774,264.189 937.907,264.353C938.04,264.517 938.106,264.714 938.106,264.943Z" style="fill:white;fill-rule:nonzero;"/>
            <path d="M941.981,265.138L941.981,267.185L943.255,267.185L943.255,268.302L941.981,268.302L941.981,273.544C941.981,273.878 942.036,274.13 942.145,274.302C942.255,274.474 942.442,274.56 942.708,274.56C942.89,274.56 943.075,274.529 943.263,274.466L943.247,275.638C942.934,275.742 942.614,275.794 942.286,275.794C941.739,275.794 941.322,275.599 941.036,275.208C940.749,274.818 940.606,274.266 940.606,273.552L940.606,268.302L939.317,268.302L939.317,267.185L940.606,267.185L940.606,265.138L941.981,265.138Z" style="fill:white;fill-rule:nonzero;"/>
            <path d="M947.208,273.341L948.747,267.185L950.216,267.185L947.45,276.833C947.242,277.557 946.947,278.108 946.567,278.486C946.187,278.863 945.755,279.052 945.27,279.052C945.083,279.052 944.843,279.01 944.552,278.927L944.552,277.755L944.856,277.786C945.257,277.786 945.571,277.691 945.798,277.501C946.024,277.311 946.208,276.982 946.348,276.513L946.622,275.568L944.138,267.185L945.645,267.185L947.208,273.341Z" style="fill:white;fill-rule:nonzero;"/>
            <path d="M928.794,286.615L924.95,286.615L924.95,291.638L923.52,291.638L923.52,280.263L929.442,280.263L929.442,281.497L924.95,281.497L924.95,285.388L928.794,285.388L928.794,286.615Z" style="fill:white;fill-rule:nonzero;"/>
            <path d="M932.505,291.638L931.122,291.638L931.122,283.185L932.505,283.185L932.505,291.638ZM932.614,280.943C932.614,281.177 932.549,281.372 932.419,281.529C932.289,281.685 932.091,281.763 931.825,281.763C931.565,281.763 931.369,281.685 931.239,281.529C931.109,281.372 931.044,281.177 931.044,280.943C931.044,280.708 931.109,280.51 931.239,280.349C931.369,280.187 931.565,280.107 931.825,280.107C932.085,280.107 932.282,280.189 932.415,280.353C932.548,280.517 932.614,280.714 932.614,280.943Z" style="fill:white;fill-rule:nonzero;"/>
            <path d="M938.169,284.482C937.976,284.445 937.768,284.427 937.544,284.427C936.835,284.427 936.341,284.815 936.059,285.591L936.059,291.638L934.677,291.638L934.677,283.185L936.02,283.185L936.044,284.044C936.414,283.367 936.937,283.029 937.614,283.029C937.833,283.029 938.015,283.065 938.161,283.138L938.169,284.482Z" style="fill:white;fill-rule:nonzero;"/>
            <path d="M943.653,289.474C943.653,289.177 943.541,288.922 943.317,288.708C943.093,288.495 942.661,288.245 942.02,287.958C941.276,287.651 940.751,287.388 940.446,287.169C940.141,286.95 939.914,286.702 939.763,286.423C939.611,286.145 939.536,285.812 939.536,285.427C939.536,284.74 939.787,284.168 940.29,283.712C940.792,283.256 941.434,283.029 942.216,283.029C943.039,283.029 943.7,283.268 944.2,283.747C944.7,284.227 944.95,284.841 944.95,285.591L943.575,285.591C943.575,285.211 943.447,284.887 943.192,284.618C942.937,284.35 942.611,284.216 942.216,284.216C941.809,284.216 941.49,284.322 941.259,284.533C941.027,284.743 940.911,285.026 940.911,285.38C940.911,285.661 940.996,285.888 941.165,286.06C941.334,286.232 941.742,286.458 942.388,286.74C943.414,287.141 944.111,287.533 944.481,287.915C944.851,288.298 945.036,288.784 945.036,289.372C945.036,290.107 944.783,290.694 944.278,291.134C943.773,291.574 943.096,291.794 942.247,291.794C941.367,291.794 940.653,291.542 940.106,291.036C939.559,290.531 939.286,289.891 939.286,289.115L940.677,289.115C940.692,289.583 940.835,289.95 941.106,290.216C941.377,290.482 941.757,290.615 942.247,290.615C942.705,290.615 943.054,290.512 943.294,290.306C943.533,290.1 943.653,289.823 943.653,289.474Z" style="fill:white;fill-rule:nonzero;"/>
            <path d="M948.645,281.138L948.645,283.185L949.919,283.185L949.919,284.302L948.645,284.302L948.645,289.544C948.645,289.878 948.7,290.13 948.809,290.302C948.919,290.474 949.106,290.56 949.372,290.56C949.554,290.56 949.739,290.529 949.927,290.466L949.911,291.638C949.598,291.742 949.278,291.794 948.95,291.794C948.403,291.794 947.986,291.599 947.7,291.208C947.414,290.818 947.27,290.266 947.27,289.552L947.27,284.302L945.981,284.302L945.981,283.185L947.27,283.185L947.27,281.138L948.645,281.138Z" style="fill:white;fill-rule:nonzero;"/>
            <path d="M908.552,307.638L908.552,296.263L911.263,296.263C912.591,296.263 913.622,296.678 914.356,297.509C915.091,298.34 915.458,299.508 915.458,301.013L915.458,302.919C915.458,304.424 915.085,305.587 914.341,306.408C913.596,307.228 912.515,307.638 911.098,307.638L908.552,307.638ZM909.981,297.497L909.981,306.411L911.13,306.411C912.135,306.411 912.869,306.124 913.333,305.548C913.796,304.973 914.033,304.12 914.044,302.99L914.044,300.974C914.044,299.776 913.813,298.897 913.352,298.337C912.891,297.777 912.195,297.497 911.263,297.497L909.981,297.497Z" style="fill:white;fill-rule:nonzero;"/>
            <path d="M920.513,307.794C919.46,307.794 918.653,307.48 918.091,306.853C917.528,306.225 917.242,305.305 917.231,304.091L917.231,303.068C917.231,301.807 917.506,300.819 918.055,300.103C918.605,299.387 919.372,299.029 920.356,299.029C921.346,299.029 922.085,299.344 922.575,299.974C923.065,300.604 923.315,301.586 923.325,302.919L923.325,303.825L918.606,303.825L918.606,304.021C918.606,304.927 918.777,305.586 919.118,305.997C919.459,306.409 919.95,306.615 920.591,306.615C920.997,306.615 921.355,306.538 921.665,306.384C921.975,306.23 922.265,305.987 922.536,305.654L923.255,306.529C922.656,307.372 921.742,307.794 920.513,307.794ZM920.356,300.216C919.783,300.216 919.359,300.413 919.083,300.806C918.807,301.199 918.651,301.81 918.614,302.638L921.942,302.638L921.942,302.45C921.906,301.648 921.761,301.075 921.509,300.732C921.256,300.388 920.872,300.216 920.356,300.216Z" style="fill:white;fill-rule:nonzero;"/>
            <path d="M929.091,305.474C929.091,305.177 928.979,304.922 928.755,304.708C928.531,304.495 928.098,304.245 927.458,303.958C926.713,303.651 926.188,303.388 925.884,303.169C925.579,302.95 925.351,302.702 925.2,302.423C925.049,302.145 924.973,301.812 924.973,301.427C924.973,300.74 925.225,300.168 925.727,299.712C926.23,299.256 926.872,299.029 927.653,299.029C928.476,299.029 929.138,299.268 929.638,299.747C930.138,300.227 930.388,300.841 930.388,301.591L929.013,301.591C929.013,301.211 928.885,300.887 928.63,300.618C928.374,300.35 928.049,300.216 927.653,300.216C927.247,300.216 926.928,300.322 926.696,300.533C926.464,300.743 926.348,301.026 926.348,301.38C926.348,301.661 926.433,301.888 926.602,302.06C926.772,302.232 927.179,302.458 927.825,302.74C928.851,303.141 929.549,303.533 929.919,303.915C930.289,304.298 930.473,304.784 930.473,305.372C930.473,306.107 930.221,306.694 929.716,307.134C929.21,307.574 928.533,307.794 927.684,307.794C926.804,307.794 926.091,307.542 925.544,307.036C924.997,306.531 924.723,305.891 924.723,305.115L926.114,305.115C926.13,305.583 926.273,305.95 926.544,306.216C926.815,306.482 927.195,306.615 927.684,306.615C928.143,306.615 928.492,306.512 928.731,306.306C928.971,306.1 929.091,305.823 929.091,305.474Z" style="fill:white;fill-rule:nonzero;"/>
            <path d="M933.763,307.638L932.38,307.638L932.38,299.185L933.763,299.185L933.763,307.638ZM933.872,296.943C933.872,297.177 933.807,297.372 933.677,297.529C933.546,297.685 933.348,297.763 933.083,297.763C932.822,297.763 932.627,297.685 932.497,297.529C932.367,297.372 932.302,297.177 932.302,296.943C932.302,296.708 932.367,296.51 932.497,296.349C932.627,296.187 932.822,296.107 933.083,296.107C933.343,296.107 933.54,296.189 933.673,296.353C933.805,296.517 933.872,296.714 933.872,296.943Z" style="fill:white;fill-rule:nonzero;"/>
            <path d="M935.661,303.029C935.661,301.711 935.901,300.715 936.38,300.04C936.859,299.366 937.559,299.029 938.481,299.029C939.341,299.029 939.994,299.396 940.442,300.13L940.513,299.185L941.763,299.185L941.763,307.716C941.763,308.763 941.494,309.566 940.958,310.126C940.421,310.686 939.674,310.966 938.716,310.966C938.299,310.966 937.832,310.863 937.313,310.658C936.795,310.452 936.406,310.198 936.145,309.896L936.708,308.943C937.281,309.505 937.914,309.786 938.606,309.786C939.757,309.786 940.348,309.159 940.38,307.904L940.38,306.802C939.932,307.464 939.296,307.794 938.473,307.794C937.598,307.794 936.916,307.465 936.427,306.806C935.937,306.147 935.682,305.2 935.661,303.966L935.661,303.029ZM937.044,303.818C937.044,304.766 937.183,305.462 937.462,305.908C937.74,306.353 938.197,306.575 938.833,306.575C939.52,306.575 940.036,306.224 940.38,305.521L940.38,301.294C940.02,300.602 939.51,300.255 938.848,300.255C938.213,300.255 937.755,300.478 937.473,300.923C937.192,301.368 937.049,302.052 937.044,302.974L937.044,303.818Z" style="fill:white;fill-rule:nonzero;"/>
            <path d="M945.122,299.185L945.161,300.099C945.697,299.385 946.382,299.029 947.216,299.029C948.71,299.029 949.468,300.026 949.489,302.021L949.489,307.638L948.114,307.638L948.114,302.083C948.114,301.422 948.003,300.952 947.782,300.673C947.561,300.395 947.229,300.255 946.786,300.255C946.442,300.255 946.134,300.37 945.86,300.599C945.587,300.828 945.367,301.128 945.2,301.497L945.2,307.638L943.817,307.638L943.817,299.185L945.122,299.185Z" style="fill:white;fill-rule:nonzero;"/>
        </g>
    </g>
</svg>
