<?xml version="1.0" encoding="UTF-8" standalone="no"?>
<!DOCTYPE svg PUBLIC "-//W3C//DTD SVG 1.1//EN" "http://www.w3.org/Graphics/SVG/1.1/DTD/svg11.dtd">
<svg width="100%" height="100%" viewBox="0 0 934 934" version="1.1" xmlns="http://www.w3.org/2000/svg" xmlns:xlink="http://www.w3.org/1999/xlink" xml:space="preserve" xmlns:serif="http://www.serif.com/" style="fill-rule:evenodd;clip-rule:evenodd;stroke-linejoin:round;stroke-miterlimit:1.41421;">
    <g>
        <circle cx="466.6" cy="466.6" r="466.6" style="fill:rgb(126,87,194);"/>
        <g transform="matrix(8.37644,0,0,8.37644,-2157.62,-2216.04)">
            <path d="M278.561,308.742L281.53,318.023L284.499,308.742L286.342,308.742L286.342,320.117L284.913,320.117L284.913,315.687L285.046,311.25L282.069,320.117L280.975,320.117L278.014,311.281L278.147,315.687L278.147,320.117L276.717,320.117L276.717,308.742L278.561,308.742Z" style="fill:white;fill-rule:nonzero;"/>
            <path d="M288.319,315.5C288.319,314.271 288.617,313.298 289.214,312.582C289.81,311.866 290.598,311.508 291.577,311.508C292.556,311.508 293.344,311.857 293.94,312.555C294.536,313.253 294.842,314.203 294.858,315.406L294.858,316.297C294.858,317.521 294.561,318.49 293.967,319.203C293.374,319.917 292.582,320.273 291.592,320.273C290.613,320.273 289.828,319.927 289.237,319.234C288.646,318.542 288.34,317.604 288.319,316.422L288.319,315.5ZM289.702,316.297C289.702,317.167 289.872,317.85 290.214,318.348C290.555,318.845 291.014,319.094 291.592,319.094C292.811,319.094 293.439,318.214 293.475,316.453L293.475,315.5C293.475,314.635 293.303,313.952 292.96,313.449C292.616,312.947 292.155,312.695 291.577,312.695C291.009,312.695 290.555,312.947 290.214,313.449C289.872,313.952 289.702,314.633 289.702,315.492L289.702,316.297Z" style="fill:white;fill-rule:nonzero;"/>
            <path d="M302.764,316.297C302.764,317.615 302.527,318.607 302.053,319.273C301.579,319.94 300.892,320.273 299.991,320.273C299.095,320.273 298.423,319.888 297.975,319.117L297.905,320.117L296.647,320.117L296.647,308.117L298.022,308.117L298.022,312.594C298.475,311.87 299.126,311.508 299.975,311.508C300.902,311.508 301.598,311.836 302.061,312.492C302.525,313.148 302.759,314.138 302.764,315.461L302.764,316.297ZM301.389,315.508C301.389,314.508 301.25,313.796 300.971,313.371C300.693,312.947 300.241,312.734 299.616,312.734C298.902,312.734 298.371,313.12 298.022,313.891L298.022,317.914C298.366,318.674 298.902,319.055 299.632,319.055C300.257,319.055 300.704,318.836 300.975,318.398C301.246,317.961 301.384,317.281 301.389,316.359L301.389,315.508Z" style="fill:white;fill-rule:nonzero;"/>
            <path d="M306.022,320.117L304.639,320.117L304.639,311.664L306.022,311.664L306.022,320.117ZM306.132,309.422C306.132,309.656 306.066,309.852 305.936,310.008C305.806,310.164 305.608,310.242 305.342,310.242C305.082,310.242 304.887,310.164 304.757,310.008C304.626,309.852 304.561,309.656 304.561,309.422C304.561,309.187 304.626,308.99 304.757,308.828C304.887,308.667 305.082,308.586 305.342,308.586C305.603,308.586 305.8,308.668 305.932,308.832C306.065,308.996 306.132,309.193 306.132,309.422Z" style="fill:white;fill-rule:nonzero;"/>
            <rect x="308.303" y="308.117" width="1.383" height="12" style="fill:white;fill-rule:nonzero;"/>
            <path d="M314.882,320.273C313.829,320.273 313.022,319.96 312.46,319.332C311.897,318.704 311.611,317.784 311.6,316.57L311.6,315.547C311.6,314.286 311.875,313.298 312.425,312.582C312.974,311.866 313.741,311.508 314.725,311.508C315.715,311.508 316.454,311.823 316.944,312.453C317.434,313.083 317.684,314.065 317.694,315.398L317.694,316.305L312.975,316.305L312.975,316.5C312.975,317.406 313.146,318.065 313.487,318.477C313.828,318.888 314.319,319.094 314.96,319.094C315.366,319.094 315.724,319.017 316.034,318.863C316.344,318.71 316.634,318.466 316.905,318.133L317.624,319.008C317.025,319.852 316.111,320.273 314.882,320.273ZM314.725,312.695C314.152,312.695 313.728,312.892 313.452,313.285C313.176,313.678 313.02,314.289 312.983,315.117L316.311,315.117L316.311,314.93C316.275,314.128 316.13,313.555 315.878,313.211C315.625,312.867 315.241,312.695 314.725,312.695Z" style="fill:white;fill-rule:nonzero;"/>
            <path d="M281.991,331.094L278.147,331.094L278.147,336.117L276.717,336.117L276.717,324.742L282.639,324.742L282.639,325.977L278.147,325.977L278.147,329.867L281.991,329.867L281.991,331.094Z" style="fill:white;fill-rule:nonzero;"/>
            <path d="M285.702,336.117L284.319,336.117L284.319,327.664L285.702,327.664L285.702,336.117ZM285.811,325.422C285.811,325.656 285.746,325.852 285.616,326.008C285.486,326.164 285.288,326.242 285.022,326.242C284.762,326.242 284.566,326.164 284.436,326.008C284.306,325.852 284.241,325.656 284.241,325.422C284.241,325.187 284.306,324.99 284.436,324.828C284.566,324.667 284.762,324.586 285.022,324.586C285.283,324.586 285.479,324.668 285.612,324.832C285.745,324.996 285.811,325.193 285.811,325.422Z" style="fill:white;fill-rule:nonzero;"/>
            <path d="M291.366,328.961C291.173,328.924 290.965,328.906 290.741,328.906C290.033,328.906 289.538,329.294 289.257,330.07L289.257,336.117L287.874,336.117L287.874,327.664L289.217,327.664L289.241,328.523C289.611,327.846 290.134,327.508 290.811,327.508C291.03,327.508 291.212,327.544 291.358,327.617L291.366,328.961Z" style="fill:white;fill-rule:nonzero;"/>
            <path d="M296.85,333.953C296.85,333.656 296.738,333.401 296.514,333.187C296.29,332.974 295.858,332.724 295.217,332.437C294.473,332.13 293.948,331.867 293.643,331.648C293.339,331.43 293.111,331.181 292.96,330.902C292.809,330.624 292.733,330.292 292.733,329.906C292.733,329.219 292.984,328.647 293.487,328.191C293.99,327.736 294.632,327.508 295.413,327.508C296.236,327.508 296.897,327.747 297.397,328.227C297.897,328.706 298.147,329.32 298.147,330.07L296.772,330.07C296.772,329.69 296.645,329.366 296.389,329.098C296.134,328.829 295.809,328.695 295.413,328.695C295.007,328.695 294.688,328.801 294.456,329.012C294.224,329.223 294.108,329.505 294.108,329.859C294.108,330.141 294.193,330.367 294.362,330.539C294.531,330.711 294.939,330.937 295.585,331.219C296.611,331.62 297.309,332.012 297.678,332.395C298.048,332.777 298.233,333.263 298.233,333.852C298.233,334.586 297.98,335.173 297.475,335.613C296.97,336.053 296.293,336.273 295.444,336.273C294.564,336.273 293.85,336.021 293.303,335.516C292.757,335.01 292.483,334.37 292.483,333.594L293.874,333.594C293.889,334.062 294.033,334.43 294.303,334.695C294.574,334.961 294.954,335.094 295.444,335.094C295.902,335.094 296.251,334.991 296.491,334.785C296.73,334.579 296.85,334.302 296.85,333.953Z" style="fill:white;fill-rule:nonzero;"/>
            <path d="M301.842,325.617L301.842,327.664L303.116,327.664L303.116,328.781L301.842,328.781L301.842,334.023C301.842,334.357 301.897,334.609 302.007,334.781C302.116,334.953 302.303,335.039 302.569,335.039C302.751,335.039 302.936,335.008 303.124,334.945L303.108,336.117C302.796,336.221 302.475,336.273 302.147,336.273C301.6,336.273 301.184,336.078 300.897,335.687C300.611,335.297 300.467,334.745 300.467,334.031L300.467,328.781L299.178,328.781L299.178,327.664L300.467,327.664L300.467,325.617L301.842,325.617Z" style="fill:white;fill-rule:nonzero;"/>
            <path d="M276.717,352.117L276.717,340.742L279.428,340.742C280.757,340.742 281.788,341.158 282.522,341.988C283.257,342.819 283.624,343.987 283.624,345.492L283.624,347.398C283.624,348.904 283.251,350.066 282.507,350.887C281.762,351.707 280.681,352.117 279.264,352.117L276.717,352.117ZM278.147,341.977L278.147,350.891L279.296,350.891C280.301,350.891 281.035,350.603 281.499,350.027C281.962,349.452 282.199,348.599 282.21,347.469L282.21,345.453C282.21,344.255 281.979,343.376 281.518,342.816C281.057,342.256 280.361,341.977 279.428,341.977L278.147,341.977Z" style="fill:white;fill-rule:nonzero;"/>
            <path d="M288.678,352.273C287.626,352.273 286.819,351.96 286.257,351.332C285.694,350.704 285.408,349.784 285.397,348.57L285.397,347.547C285.397,346.286 285.672,345.298 286.221,344.582C286.771,343.866 287.538,343.508 288.522,343.508C289.512,343.508 290.251,343.823 290.741,344.453C291.23,345.083 291.48,346.065 291.491,347.398L291.491,348.305L286.772,348.305L286.772,348.5C286.772,349.406 286.943,350.065 287.284,350.477C287.625,350.888 288.116,351.094 288.757,351.094C289.163,351.094 289.521,351.017 289.831,350.863C290.141,350.71 290.431,350.466 290.702,350.133L291.421,351.008C290.822,351.852 289.908,352.273 288.678,352.273ZM288.522,344.695C287.949,344.695 287.525,344.892 287.249,345.285C286.973,345.678 286.816,346.289 286.78,347.117L290.108,347.117L290.108,346.93C290.072,346.128 289.927,345.555 289.675,345.211C289.422,344.867 289.038,344.695 288.522,344.695Z" style="fill:white;fill-rule:nonzero;"/>
            <path d="M297.257,349.953C297.257,349.656 297.145,349.401 296.921,349.187C296.697,348.974 296.264,348.724 295.624,348.437C294.879,348.13 294.354,347.867 294.05,347.648C293.745,347.43 293.517,347.181 293.366,346.902C293.215,346.624 293.139,346.292 293.139,345.906C293.139,345.219 293.391,344.647 293.893,344.191C294.396,343.736 295.038,343.508 295.819,343.508C296.642,343.508 297.303,343.747 297.803,344.227C298.303,344.706 298.553,345.32 298.553,346.07L297.178,346.07C297.178,345.69 297.051,345.366 296.796,345.098C296.54,344.829 296.215,344.695 295.819,344.695C295.413,344.695 295.094,344.801 294.862,345.012C294.63,345.223 294.514,345.505 294.514,345.859C294.514,346.141 294.599,346.367 294.768,346.539C294.938,346.711 295.345,346.937 295.991,347.219C297.017,347.62 297.715,348.012 298.085,348.395C298.454,348.777 298.639,349.263 298.639,349.852C298.639,350.586 298.387,351.173 297.882,351.613C297.376,352.053 296.699,352.273 295.85,352.273C294.97,352.273 294.257,352.021 293.71,351.516C293.163,351.01 292.889,350.37 292.889,349.594L294.28,349.594C294.296,350.062 294.439,350.43 294.71,350.695C294.98,350.961 295.361,351.094 295.85,351.094C296.309,351.094 296.658,350.991 296.897,350.785C297.137,350.579 297.257,350.302 297.257,349.953Z" style="fill:white;fill-rule:nonzero;"/>
            <path d="M301.928,352.117L300.546,352.117L300.546,343.664L301.928,343.664L301.928,352.117ZM302.038,341.422C302.038,341.656 301.973,341.852 301.842,342.008C301.712,342.164 301.514,342.242 301.249,342.242C300.988,342.242 300.793,342.164 300.663,342.008C300.533,341.852 300.467,341.656 300.467,341.422C300.467,341.187 300.533,340.99 300.663,340.828C300.793,340.667 300.988,340.586 301.249,340.586C301.509,340.586 301.706,340.668 301.839,340.832C301.971,340.996 302.038,341.193 302.038,341.422Z" style="fill:white;fill-rule:nonzero;"/>
            <path d="M303.827,347.508C303.827,346.19 304.066,345.194 304.546,344.52C305.025,343.845 305.725,343.508 306.647,343.508C307.507,343.508 308.16,343.875 308.608,344.609L308.678,343.664L309.928,343.664L309.928,352.195C309.928,353.242 309.66,354.046 309.124,354.605C308.587,355.165 307.84,355.445 306.882,355.445C306.465,355.445 305.997,355.342 305.479,355.137C304.961,354.931 304.572,354.677 304.311,354.375L304.874,353.422C305.447,353.984 306.079,354.266 306.772,354.266C307.923,354.266 308.514,353.638 308.546,352.383L308.546,351.281C308.098,351.943 307.462,352.273 306.639,352.273C305.764,352.273 305.082,351.944 304.592,351.285C304.103,350.626 303.848,349.68 303.827,348.445L303.827,347.508ZM305.21,348.297C305.21,349.245 305.349,349.941 305.628,350.387C305.906,350.832 306.363,351.055 306.999,351.055C307.686,351.055 308.202,350.703 308.546,350L308.546,345.773C308.186,345.081 307.676,344.734 307.014,344.734C306.379,344.734 305.921,344.957 305.639,345.402C305.358,345.848 305.215,346.531 305.21,347.453L305.21,348.297Z" style="fill:white;fill-rule:nonzero;"/>
            <path d="M313.288,343.664L313.327,344.578C313.863,343.865 314.548,343.508 315.382,343.508C316.876,343.508 317.634,344.505 317.655,346.5L317.655,352.117L316.28,352.117L316.28,346.562C316.28,345.901 316.169,345.431 315.948,345.152C315.727,344.874 315.395,344.734 314.952,344.734C314.608,344.734 314.3,344.849 314.026,345.078C313.753,345.307 313.533,345.607 313.366,345.977L313.366,352.117L311.983,352.117L311.983,343.664L313.288,343.664Z" style="fill:white;fill-rule:nonzero;"/>
        </g>
    </g>
</svg>
